<svg xmlns="http://www.w3.org/2000/svg" xmlns:xlink="http://www.w3.org/1999/xlink" width="147" zoomAndPan="magnify" viewBox="0 0 110.25 30.750001" height="41" preserveAspectRatio="xMidYMid meet" version="1.0"><defs><g/><clipPath id="3d741d016d"><path d="M 91.574219 10.351562 L 97.683594 10.351562 L 97.683594 20.371094 L 91.574219 20.371094 Z M 91.574219 10.351562 " clip-rule="nonzero"/></clipPath><clipPath id="089a39e627"><path d="M 0.0742188 9.652344 L 10.335938 9.652344 L 10.335938 21 L 0.0742188 21 Z M 0.0742188 9.652344 " clip-rule="nonzero"/></clipPath><clipPath id="d24483c06a"><path d="M 98.503906 9.652344 L 108.664062 9.652344 L 108.664062 21 L 98.503906 21 Z M 98.503906 9.652344 " clip-rule="nonzero"/></clipPath></defs><g clip-path="url(#3d741d016d)"><path fill="#6467f2" d="M 97.632812 11.402344 L 93.296875 20.25 C 93.265625 20.3125 93.179688 20.332031 93.113281 20.292969 L 91.65625 19.71875 C 91.597656 19.683594 91.574219 19.613281 91.597656 19.558594 L 95.285156 10.4375 C 95.3125 10.378906 95.382812 10.351562 95.449219 10.378906 L 97.550781 11.226562 C 97.628906 11.257812 97.664062 11.339844 97.632812 11.402344 Z M 97.632812 11.402344 " fill-opacity="1" fill-rule="nonzero"/></g><g clip-path="url(#089a39e627)"><path fill="#6467f2" d="M 8.878906 20.953125 C 6.742188 19.628906 3.765625 17.792969 0.460938 16.550781 C 0.320312 15.851562 0.171875 14.929688 0.0742188 14.238281 C 3.226562 12.859375 6.890625 11.082031 10.445312 9.722656 C 10.433594 10.800781 10.386719 11.855469 10.296875 12.921875 C 8.144531 13.699219 6.089844 14.570312 4.152344 15.335938 C 6.136719 16.050781 8.015625 16.855469 9.683594 17.628906 C 9.480469 18.671875 9.164062 19.917969 8.878906 20.953125 Z M 8.878906 20.953125 " fill-opacity="1" fill-rule="nonzero"/></g><g fill="#6467f2" fill-opacity="1"><g transform="translate(11.454275, 20.842107)"><g><path d="M 7.234375 -8.625 C 7.160156 -8.96875 7 -9.242188 6.75 -9.453125 C 6.507812 -9.671875 6.226562 -9.832031 5.90625 -9.9375 C 5.582031 -10.039062 5.253906 -10.09375 4.921875 -10.09375 C 4.515625 -10.09375 4.113281 -10.023438 3.71875 -9.890625 C 3.320312 -9.753906 3 -9.53125 2.75 -9.21875 C 2.65625 -9.09375 2.582031 -8.945312 2.53125 -8.78125 C 2.488281 -8.625 2.46875 -8.46875 2.46875 -8.3125 C 2.46875 -7.863281 2.597656 -7.523438 2.859375 -7.296875 C 3.117188 -7.078125 3.453125 -6.929688 3.859375 -6.859375 C 4.265625 -6.785156 4.679688 -6.722656 5.109375 -6.671875 C 5.515625 -6.628906 5.925781 -6.5625 6.34375 -6.46875 C 6.757812 -6.375 7.160156 -6.238281 7.546875 -6.0625 C 7.929688 -5.882812 8.265625 -5.644531 8.546875 -5.34375 C 8.828125 -5.050781 9.023438 -4.671875 9.140625 -4.203125 C 9.191406 -3.921875 9.21875 -3.664062 9.21875 -3.4375 C 9.21875 -2.875 9.09375 -2.375 8.84375 -1.9375 C 8.59375 -1.5 8.257812 -1.125 7.84375 -0.8125 C 7.425781 -0.507812 6.960938 -0.28125 6.453125 -0.125 C 5.941406 0.0195312 5.425781 0.09375 4.90625 0.09375 C 4.457031 0.09375 4 0.03125 3.53125 -0.09375 C 3.0625 -0.226562 2.625 -0.425781 2.21875 -0.6875 C 1.8125 -0.945312 1.472656 -1.273438 1.203125 -1.671875 C 0.929688 -2.066406 0.769531 -2.523438 0.71875 -3.046875 L 0.703125 -3.359375 L 2.390625 -3.390625 L 2.40625 -3.140625 L 2.40625 -3.203125 C 2.445312 -2.847656 2.597656 -2.546875 2.859375 -2.296875 C 3.117188 -2.046875 3.4375 -1.859375 3.8125 -1.734375 C 4.195312 -1.617188 4.566406 -1.5625 4.921875 -1.5625 C 5.335938 -1.5625 5.742188 -1.632812 6.140625 -1.78125 C 6.546875 -1.9375 6.878906 -2.15625 7.140625 -2.4375 C 7.398438 -2.71875 7.53125 -3.054688 7.53125 -3.453125 C 7.53125 -3.578125 7.507812 -3.710938 7.46875 -3.859375 C 7.40625 -4.148438 7.242188 -4.367188 6.984375 -4.515625 C 6.722656 -4.671875 6.410156 -4.78125 6.046875 -4.84375 C 5.679688 -4.914062 5.304688 -4.96875 4.921875 -5 C 4.460938 -5.039062 4 -5.109375 3.53125 -5.203125 C 3.070312 -5.296875 2.640625 -5.445312 2.234375 -5.65625 C 1.835938 -5.875 1.507812 -6.164062 1.25 -6.53125 C 0.988281 -6.90625 0.835938 -7.394531 0.796875 -8 L 0.796875 -7.984375 C 0.796875 -8.046875 0.789062 -8.097656 0.78125 -8.140625 C 0.78125 -8.179688 0.78125 -8.222656 0.78125 -8.265625 C 0.78125 -8.984375 0.992188 -9.628906 1.421875 -10.203125 C 1.816406 -10.710938 2.332031 -11.097656 2.96875 -11.359375 C 3.613281 -11.617188 4.273438 -11.75 4.953125 -11.75 C 5.546875 -11.75 6.128906 -11.640625 6.703125 -11.421875 C 7.273438 -11.203125 7.757812 -10.867188 8.15625 -10.421875 C 8.550781 -9.972656 8.800781 -9.394531 8.90625 -8.6875 Z M 7.234375 -8.625 "/></g></g></g><g fill="#6467f2" fill-opacity="1"><g transform="translate(21.340296, 20.842107)"><g><path d="M 10.578125 0 L 8.953125 0 L 8.953125 -1.21875 C 8.742188 -0.894531 8.457031 -0.632812 8.09375 -0.4375 C 7.726562 -0.238281 7.335938 -0.09375 6.921875 0 C 6.515625 0.09375 6.125 0.144531 5.75 0.15625 C 4.707031 0.15625 3.828125 -0.0625 3.109375 -0.5 C 2.390625 -0.9375 1.84375 -1.515625 1.46875 -2.234375 C 1.09375 -2.953125 0.90625 -3.71875 0.90625 -4.53125 C 0.90625 -5.34375 1.09375 -6.097656 1.46875 -6.796875 C 1.851562 -7.492188 2.40625 -8.054688 3.125 -8.484375 C 3.84375 -8.921875 4.707031 -9.140625 5.71875 -9.140625 C 6.09375 -9.140625 6.476562 -9.101562 6.875 -9.03125 C 7.269531 -8.957031 7.648438 -8.820312 8.015625 -8.625 C 8.390625 -8.4375 8.707031 -8.160156 8.96875 -7.796875 L 8.953125 -8.984375 L 10.578125 -8.984375 Z M 8.953125 -4.5 C 8.953125 -5.21875 8.785156 -5.8125 8.453125 -6.28125 C 8.128906 -6.757812 7.71875 -7.113281 7.21875 -7.34375 C 6.726562 -7.582031 6.226562 -7.703125 5.71875 -7.703125 C 5.0625 -7.703125 4.492188 -7.5625 4.015625 -7.28125 C 3.546875 -7 3.179688 -6.617188 2.921875 -6.140625 C 2.671875 -5.671875 2.546875 -5.132812 2.546875 -4.53125 C 2.546875 -3.96875 2.671875 -3.4375 2.921875 -2.9375 C 3.179688 -2.445312 3.546875 -2.050781 4.015625 -1.75 C 4.484375 -1.445312 5.050781 -1.296875 5.71875 -1.296875 C 6.21875 -1.296875 6.710938 -1.410156 7.203125 -1.640625 C 7.703125 -1.878906 8.117188 -2.234375 8.453125 -2.703125 C 8.785156 -3.179688 8.953125 -3.78125 8.953125 -4.5 Z M 8.953125 -4.5 "/></g></g></g><g fill="#6467f2" fill-opacity="1"><g transform="translate(33.170305, 20.842107)"><g><path d="M 2.875 -7.875 C 3.207031 -8.363281 3.609375 -8.691406 4.078125 -8.859375 C 4.546875 -9.035156 5.0625 -9.125 5.625 -9.125 C 6.550781 -9.125 7.296875 -8.945312 7.859375 -8.59375 C 8.429688 -8.238281 8.851562 -7.738281 9.125 -7.09375 C 9.394531 -6.445312 9.53125 -5.691406 9.53125 -4.828125 L 9.53125 0 L 7.921875 0 L 7.921875 -4.8125 C 7.921875 -5.375 7.859375 -5.867188 7.734375 -6.296875 C 7.609375 -6.734375 7.367188 -7.070312 7.015625 -7.3125 C 6.671875 -7.550781 6.171875 -7.671875 5.515625 -7.671875 C 4.953125 -7.671875 4.472656 -7.546875 4.078125 -7.296875 C 3.679688 -7.046875 3.378906 -6.707031 3.171875 -6.28125 C 2.972656 -5.863281 2.875 -5.398438 2.875 -4.890625 L 2.875 0 L 1.25 0 L 1.25 -8.984375 L 2.875 -8.984375 Z M 2.875 -7.875 "/></g></g></g><g fill="#6467f2" fill-opacity="1"><g transform="translate(43.936928, 20.842107)"><g><path d="M 3.375 -8.984375 L 5.34375 -8.984375 L 5.34375 -7.6875 L 3.375 -7.6875 L 3.375 -2.625 C 3.375 -2.09375 3.492188 -1.738281 3.734375 -1.5625 C 3.984375 -1.394531 4.3125 -1.3125 4.71875 -1.3125 C 4.8125 -1.3125 4.914062 -1.3125 5.03125 -1.3125 C 5.15625 -1.320312 5.273438 -1.332031 5.390625 -1.34375 L 5.390625 0.015625 C 5.265625 0.0234375 5.140625 0.03125 5.015625 0.03125 C 4.890625 0.0390625 4.769531 0.046875 4.65625 0.046875 C 4.0625 0.046875 3.546875 -0.03125 3.109375 -0.1875 C 2.671875 -0.351562 2.332031 -0.628906 2.09375 -1.015625 C 1.863281 -1.398438 1.75 -1.941406 1.75 -2.640625 L 1.75 -7.6875 L 0.40625 -7.6875 L 0.40625 -8.984375 L 1.75 -8.984375 L 1.75 -10.65625 L 3.375 -10.984375 Z M 3.375 -8.984375 "/></g></g></g><g fill="#6467f2" fill-opacity="1"><g transform="translate(49.652543, 20.842107)"><g><path d="M 1.140625 -11.296875 C 1.140625 -11.609375 1.25 -11.835938 1.46875 -11.984375 C 1.6875 -12.140625 1.921875 -12.21875 2.171875 -12.21875 C 2.429688 -12.21875 2.660156 -12.144531 2.859375 -12 C 3.066406 -11.851562 3.171875 -11.617188 3.171875 -11.296875 C 3.171875 -10.984375 3.066406 -10.742188 2.859375 -10.578125 C 2.648438 -10.421875 2.414062 -10.34375 2.15625 -10.34375 C 1.914062 -10.34375 1.6875 -10.421875 1.46875 -10.578125 C 1.25 -10.742188 1.140625 -10.984375 1.140625 -11.296875 Z M 1.34375 -9.078125 L 1.34375 0 L 2.96875 0 L 2.96875 -9.078125 Z M 1.34375 -9.078125 "/></g></g></g><g fill="#6467f2" fill-opacity="1"><g transform="translate(54.12202, 20.842107)"><g><path d="M 10.578125 0 L 8.953125 0 L 8.953125 -1.21875 C 8.742188 -0.894531 8.457031 -0.632812 8.09375 -0.4375 C 7.726562 -0.238281 7.335938 -0.09375 6.921875 0 C 6.515625 0.09375 6.125 0.144531 5.75 0.15625 C 4.707031 0.15625 3.828125 -0.0625 3.109375 -0.5 C 2.390625 -0.9375 1.84375 -1.515625 1.46875 -2.234375 C 1.09375 -2.953125 0.90625 -3.71875 0.90625 -4.53125 C 0.90625 -5.34375 1.09375 -6.097656 1.46875 -6.796875 C 1.851562 -7.492188 2.40625 -8.054688 3.125 -8.484375 C 3.84375 -8.921875 4.707031 -9.140625 5.71875 -9.140625 C 6.09375 -9.140625 6.476562 -9.101562 6.875 -9.03125 C 7.269531 -8.957031 7.648438 -8.820312 8.015625 -8.625 C 8.390625 -8.4375 8.707031 -8.160156 8.96875 -7.796875 L 8.953125 -8.984375 L 10.578125 -8.984375 Z M 8.953125 -4.5 C 8.953125 -5.21875 8.785156 -5.8125 8.453125 -6.28125 C 8.128906 -6.757812 7.71875 -7.113281 7.21875 -7.34375 C 6.726562 -7.582031 6.226562 -7.703125 5.71875 -7.703125 C 5.0625 -7.703125 4.492188 -7.5625 4.015625 -7.28125 C 3.546875 -7 3.179688 -6.617188 2.921875 -6.140625 C 2.671875 -5.671875 2.546875 -5.132812 2.546875 -4.53125 C 2.546875 -3.96875 2.671875 -3.4375 2.921875 -2.9375 C 3.179688 -2.445312 3.546875 -2.050781 4.015625 -1.75 C 4.484375 -1.445312 5.050781 -1.296875 5.71875 -1.296875 C 6.21875 -1.296875 6.710938 -1.410156 7.203125 -1.640625 C 7.703125 -1.878906 8.117188 -2.234375 8.453125 -2.703125 C 8.785156 -3.179688 8.953125 -3.78125 8.953125 -4.5 Z M 8.953125 -4.5 "/></g></g></g><g fill="#6467f2" fill-opacity="1"><g transform="translate(65.785863, 20.842107)"><g><path d="M 10.25 -0.328125 C 10.25 0.367188 10.113281 0.960938 9.84375 1.453125 C 9.582031 1.941406 9.226562 2.335938 8.78125 2.640625 C 8.332031 2.953125 7.832031 3.175781 7.28125 3.3125 C 6.738281 3.457031 6.1875 3.53125 5.625 3.53125 C 4.875 3.53125 4.164062 3.425781 3.5 3.21875 C 2.84375 3.019531 2.304688 2.703125 1.890625 2.265625 C 1.472656 1.828125 1.265625 1.269531 1.265625 0.59375 L 2.875 0.59375 C 2.875 0.96875 3.015625 1.265625 3.296875 1.484375 C 3.578125 1.703125 3.921875 1.859375 4.328125 1.953125 C 4.742188 2.046875 5.144531 2.09375 5.53125 2.09375 C 6.019531 2.09375 6.5 2.007812 6.96875 1.84375 C 7.445312 1.6875 7.84375 1.429688 8.15625 1.078125 C 8.46875 0.722656 8.625 0.253906 8.625 -0.328125 L 8.625 -1.28125 C 8.226562 -0.769531 7.757812 -0.429688 7.21875 -0.265625 C 6.6875 -0.0976562 6.144531 -0.015625 5.59375 -0.015625 C 4.582031 -0.015625 3.722656 -0.21875 3.015625 -0.625 C 2.304688 -1.03125 1.765625 -1.566406 1.390625 -2.234375 C 1.015625 -2.910156 0.828125 -3.65625 0.828125 -4.46875 C 0.828125 -5.289062 1.003906 -6.054688 1.359375 -6.765625 C 1.722656 -7.472656 2.257812 -8.046875 2.96875 -8.484375 C 3.675781 -8.921875 4.550781 -9.140625 5.59375 -9.140625 C 6.144531 -9.140625 6.707031 -9.035156 7.28125 -8.828125 C 7.851562 -8.617188 8.304688 -8.273438 8.640625 -7.796875 L 8.640625 -8.984375 L 10.25 -8.984375 Z M 5.578125 -1.4375 C 6.253906 -1.4375 6.816406 -1.59375 7.265625 -1.90625 C 7.710938 -2.226562 8.050781 -2.640625 8.28125 -3.140625 C 8.507812 -3.640625 8.625 -4.164062 8.625 -4.71875 C 8.625 -5.257812 8.507812 -5.753906 8.28125 -6.203125 C 8.0625 -6.660156 7.726562 -7.023438 7.28125 -7.296875 C 6.832031 -7.566406 6.273438 -7.703125 5.609375 -7.703125 C 4.953125 -7.703125 4.382812 -7.546875 3.90625 -7.234375 C 3.4375 -6.921875 3.078125 -6.515625 2.828125 -6.015625 C 2.578125 -5.523438 2.453125 -5.007812 2.453125 -4.46875 C 2.460938 -3.945312 2.585938 -3.453125 2.828125 -2.984375 C 3.078125 -2.523438 3.429688 -2.148438 3.890625 -1.859375 C 4.359375 -1.578125 4.921875 -1.4375 5.578125 -1.4375 Z M 5.578125 -1.4375 "/></g></g></g><g fill="#6467f2" fill-opacity="1"><g transform="translate(77.31679, 20.842107)"><g><path d="M 10.546875 -4.484375 C 10.546875 -3.710938 10.410156 -3.035156 10.140625 -2.453125 C 9.867188 -1.867188 9.5 -1.382812 9.03125 -1 C 8.570312 -0.613281 8.050781 -0.320312 7.46875 -0.125 C 6.882812 0.0703125 6.289062 0.171875 5.6875 0.171875 C 5.082031 0.171875 4.492188 0.0703125 3.921875 -0.125 C 3.347656 -0.320312 2.828125 -0.613281 2.359375 -1 C 1.898438 -1.382812 1.535156 -1.867188 1.265625 -2.453125 C 0.992188 -3.035156 0.859375 -3.710938 0.859375 -4.484375 C 0.859375 -5.253906 0.992188 -5.929688 1.265625 -6.515625 C 1.535156 -7.097656 1.90625 -7.582031 2.375 -7.96875 C 2.84375 -8.351562 3.363281 -8.644531 3.9375 -8.84375 C 4.519531 -9.039062 5.117188 -9.140625 5.734375 -9.140625 C 6.335938 -9.140625 6.925781 -9.039062 7.5 -8.84375 C 8.070312 -8.644531 8.585938 -8.351562 9.046875 -7.96875 C 9.503906 -7.582031 9.867188 -7.097656 10.140625 -6.515625 C 10.410156 -5.929688 10.546875 -5.253906 10.546875 -4.484375 Z M 2.484375 -4.484375 C 2.484375 -3.773438 2.640625 -3.1875 2.953125 -2.71875 C 3.273438 -2.25 3.679688 -1.894531 4.171875 -1.65625 C 4.671875 -1.414062 5.1875 -1.296875 5.71875 -1.296875 C 6.257812 -1.296875 6.769531 -1.414062 7.25 -1.65625 C 7.738281 -1.894531 8.140625 -2.25 8.453125 -2.71875 C 8.773438 -3.195312 8.9375 -3.785156 8.9375 -4.484375 C 8.9375 -5.191406 8.78125 -5.78125 8.46875 -6.25 C 8.15625 -6.726562 7.753906 -7.085938 7.265625 -7.328125 C 6.773438 -7.566406 6.265625 -7.6875 5.734375 -7.6875 C 5.191406 -7.6875 4.671875 -7.566406 4.171875 -7.328125 C 3.679688 -7.085938 3.273438 -6.734375 2.953125 -6.265625 C 2.640625 -5.796875 2.484375 -5.203125 2.484375 -4.484375 Z M 2.484375 -4.484375 "/></g></g></g><g clip-path="url(#d24483c06a)"><path fill="#6467f2" d="M 99.960938 20.953125 C 102.097656 19.628906 105.078125 17.792969 108.378906 16.550781 C 108.523438 15.851562 108.667969 14.929688 108.769531 14.238281 C 105.613281 12.859375 101.953125 11.082031 98.398438 9.722656 C 98.40625 10.800781 98.453125 11.855469 98.542969 12.921875 C 100.699219 13.699219 102.753906 14.570312 104.691406 15.335938 C 102.707031 16.050781 100.824219 16.855469 99.15625 17.628906 C 99.359375 18.671875 99.679688 19.917969 99.960938 20.953125 Z M 99.960938 20.953125 " fill-opacity="1" fill-rule="nonzero"/></g></svg>