<svg xmlns="http://www.w3.org/2000/svg" xmlns:xlink="http://www.w3.org/1999/xlink" width="41" zoomAndPan="magnify" viewBox="0 0 30.75 11.999999" height="16" preserveAspectRatio="xMidYMid meet" version="1.2"><defs><clipPath id="8230627286"><path d="M 12.605469 0.746094 L 18.554688 0.746094 L 18.554688 10.417969 L 12.605469 10.417969 Z M 12.605469 0.746094 "/></clipPath><clipPath id="7c5a24ffbd"><path d="M 0 0.046875 L 10.414062 0.046875 L 10.414062 11.207031 L 0 11.207031 Z M 0 0.046875 "/></clipPath><clipPath id="5e793389b4"><path d="M 19.429688 0.046875 L 29.796875 0.046875 L 29.796875 11.207031 L 19.429688 11.207031 Z M 19.429688 0.046875 "/></clipPath></defs><g id="c3ed904f2e"><g clip-rule="nonzero" clip-path="url(#8230627286)"><path style=" stroke:none;fill-rule:nonzero;fill:#6467f2;fill-opacity:1;" d="M 18.472656 1.765625 L 14.273438 10.335938 C 14.242188 10.394531 14.164062 10.414062 14.097656 10.375 L 12.683594 9.820312 C 12.628906 9.785156 12.605469 9.71875 12.628906 9.667969 L 16.203125 0.832031 C 16.226562 0.773438 16.296875 0.75 16.359375 0.773438 L 18.394531 1.59375 C 18.46875 1.625 18.503906 1.703125 18.472656 1.765625 Z M 18.472656 1.765625 "/></g><g clip-rule="nonzero" clip-path="url(#7c5a24ffbd)"><path style=" stroke:none;fill-rule:nonzero;fill:#6467f2;fill-opacity:1;" d="M 8.632812 11.128906 C 6.539062 9.832031 3.617188 8.03125 0.382812 6.8125 C 0.242188 6.128906 0.0976562 5.222656 0 4.546875 C 3.09375 3.195312 6.683594 1.453125 10.167969 0.121094 C 10.15625 1.175781 10.113281 2.207031 10.023438 3.253906 C 7.910156 4.015625 5.898438 4.871094 4 5.621094 C 5.945312 6.320312 7.789062 7.113281 9.421875 7.871094 C 9.222656 8.894531 8.914062 10.113281 8.632812 11.128906 Z M 8.632812 11.128906 "/></g><g clip-rule="nonzero" clip-path="url(#5e793389b4)"><path style=" stroke:none;fill-rule:nonzero;fill:#6467f2;fill-opacity:1;" d="M 21.164062 11.128906 C 23.257812 9.832031 26.179688 8.03125 29.414062 6.8125 C 29.554688 6.128906 29.699219 5.222656 29.796875 4.546875 C 26.703125 3.195312 23.113281 1.453125 19.628906 0.121094 C 19.640625 1.175781 19.6875 2.207031 19.773438 3.253906 C 21.886719 4.015625 23.898438 4.871094 25.800781 5.621094 C 23.855469 6.320312 22.011719 7.113281 20.375 7.871094 C 20.574219 8.894531 20.886719 10.113281 21.164062 11.128906 Z M 21.164062 11.128906 "/></g></g></svg>